<svg xmlns="http://www.w3.org/2000/svg" viewBox="0 0 128 128"><defs><style>.cls-1{isolation:isolate;}.cls-2{mix-blend-mode:multiply;}.cls-3,.cls-8{fill:#302a27;}.cls-4{fill:#c49b83;}.cls-5{fill:#bcda7a;}.cls-6{fill:#d94b58;}.cls-7{fill:#fccc33;}.cls-8,.cls-9{stroke:#302a27;stroke-linecap:round;stroke-linejoin:round;stroke-width:2px;}.cls-8{opacity:0.12;}.cls-9{fill:none;}.cls-10{opacity:0.24;}</style></defs><title>pizza</title><g class="cls-1"><g id="icons" class="cls-2"><path class="cls-3" d="M64,115a2,2,0,0,1-1.784-1.1l-38.18-75.36-3.564-7.119a5.962,5.962,0,0,1,1.8-7.524c.806-.574,1.624-1.113,2.448-1.612C34.378,16.387,48.7,13,64,13a94.162,94.162,0,0,1,23.681,2.917,58.309,58.309,0,0,1,15.6,6.376c.818.5,1.637,1.034,2.429,1.6a5.967,5.967,0,0,1,1.818,7.533l-3.562,7.111L65.784,113.9A2,2,0,0,1,64,115Z"/><path class="cls-3" d="M64,15a91.588,91.588,0,0,1,23.17,2.85A56.684,56.684,0,0,1,102.24,24c.81.49,1.58,1,2.31,1.52a3.989,3.989,0,0,1,1.19,5.01l-3.56,7.11L64,113,25.82,37.64l-3.56-7.11a3.989,3.989,0,0,1,1.19-5.01c.73-.52,1.5-1.03,2.31-1.52,8.98-5.49,22.77-9,38.24-9m0-4c-15.662,0-30.36,3.494-40.326,9.587-.844.511-1.706,1.078-2.544,1.675a7.965,7.965,0,0,0-2.447,10.057l3.561,7.112,38.189,75.377a4,4,0,0,0,7.136,0l38.18-75.36,3.569-7.127A7.956,7.956,0,0,0,106.9,22.283q-1.3-.928-2.59-1.706a60.278,60.278,0,0,0-16.127-6.6A96.2,96.2,0,0,0,64,11Z"/><g id="_Group_" data-name="&lt;Group&gt;"><path class="cls-4" d="M104.55,25.52a3.989,3.989,0,0,1,1.19,5.01l-3.56,7.11c-.72-.56-1.49-1.11-2.31-1.64C91.44,30.51,78.51,27,64,27s-27.44,3.51-35.87,9c-.82.53-1.59,1.08-2.31,1.64l-3.56-7.11a3.989,3.989,0,0,1,1.19-5.01c.73-.52,1.5-1.03,2.31-1.52,8.98-5.49,22.77-9,38.24-9a91.589,91.589,0,0,1,23.17,2.85A56.684,56.684,0,0,1,102.24,24C103.05,24.49,103.82,25,104.55,25.52Z"/><circle class="cls-5" cx="63" cy="94" r="3"/><circle class="cls-5" cx="51" cy="40" r="3"/><circle class="cls-5" cx="66" cy="56" r="3"/><circle class="cls-6" cx="67" cy="75" r="7"/><circle class="cls-6" cx="80" cy="43" r="7"/><path class="cls-6" d="M42,52a7,7,0,1,1-2.17,13.66l-4.46-8.91A6.994,6.994,0,0,1,42,52Z"/><path class="cls-7" d="M102.18,37.64,64,113l-5.38-10.76L39.83,65.66a7,7,0,1,0-4.46-8.91L25.82,37.64c.72-.56,1.49-1.11,2.31-1.64,8.43-5.49,21.36-9,35.87-9s27.44,3.51,35.87,9C100.69,36.53,101.46,37.08,102.18,37.64ZM87,43a7,7,0,1,0-7,7A6.995,6.995,0,0,0,87,43ZM74,75a7,7,0,1,0-7,7A6.995,6.995,0,0,0,74,75ZM69,56a3,3,0,1,0-3,3A3,3,0,0,0,69,56ZM66,94a3,3,0,1,0-3,3A3,3,0,0,0,66,94ZM54,40a3,3,0,1,0-3,3A3,3,0,0,0,54,40Z"/><path class="cls-8" d="M105.74,30.53l-3.56,7.11L64,113l-5.38-10.76c2.05-6.94,6.31-11.44,11.2-17.33,4.33-5.21,8.59-10.93,9.54-17.64.46-3.19.13-6.5,1.06-9.59.86-2.89,2.74-5.35,4.41-7.86a59.684,59.684,0,0,0,5.67-10.9c1.66-4.18,2.75-9.24.16-12.93-1.44-2.06-3.99-3.67-4.02-6.19a3.756,3.756,0,0,1,.53-1.95A56.684,56.684,0,0,1,102.24,24c.81.49,1.58,1,2.31,1.52A3.989,3.989,0,0,1,105.74,30.53Z"/><path class="cls-9" d="M35.37,56.75,25.82,37.64l-3.56-7.11a3.989,3.989,0,0,1,1.19-5.01c.73-.52,1.5-1.03,2.31-1.52,8.98-5.49,22.77-9,38.24-9a91.589,91.589,0,0,1,23.17,2.85A56.684,56.684,0,0,1,102.24,24c.81.49,1.58,1,2.31,1.52a3.989,3.989,0,0,1,1.19,5.01l-3.56,7.11L64,113l-5.38-10.76L39.83,65.66"/><path class="cls-9" d="M25.82,37.64c.72-.56,1.49-1.11,2.31-1.64,8.43-5.49,21.36-9,35.87-9s27.44,3.51,35.87,9c.82.53,1.59,1.08,2.31,1.64"/><circle class="cls-9" cx="80" cy="43" r="7"/><path class="cls-9" d="M35.37,56.75a6.989,6.989,0,1,1,4.46,8.91Z"/><circle class="cls-9" cx="67" cy="75" r="7"/><circle class="cls-9" cx="51" cy="40" r="3"/><circle class="cls-9" cx="66" cy="56" r="3"/><circle class="cls-9" cx="63" cy="94" r="3"/><g class="cls-10"><line class="cls-9" x1="81" y1="59" x2="79" y2="62"/><line class="cls-9" x1="52" y1="71" x2="54" y2="74"/><line class="cls-9" x1="66" y1="35" x2="64" y2="38"/><line class="cls-9" x1="36" y1="42" x2="39" y2="44"/></g></g></g></g></svg>